<svg width="24" height="24" viewBox="0 0 24 24" fill="none" xmlns="http://www.w3.org/2000/svg">
<path d="M11.499 9.49917L11.5 21.0012L6.25006 21.0018C4.51701 21.0018 3.10076 19.6455 3.00514 17.9364L3 17.7519V9.49917H11.499ZM12.999 15.4992H21.5L21.5008 17.7519C21.5006 19.5467 20.0456 21.0018 18.2507 21.0018L13 21.0012L12.999 15.4992ZM18.2514 2.49817C19.9844 2.49817 21.4007 3.85452 21.4963 5.56367L21.5014 5.74809L21.5 13.9992H12.999L13 2.49817H18.2514ZM11.5 2.49817L11.499 7.99917H3L3.0006 5.74811C3.00081 3.95328 4.45582 2.49817 6.25065 2.49817H11.5Z" fill="#4382F4"/>
</svg>
